<svg xmlns="http://www.w3.org/2000/svg" viewBox="0 0 226.77 40.55"><defs><style>.cls-1{fill:#fff;}</style></defs><title>logo white</title><g id="Слой_2" data-name="Слой 2"><g id="logo"><g id="logo_white" data-name="logo white"><g id="name"><path id="a" class="cls-1" d="M212.7,26.77c4.8-1.79,6.7-3,6.65-6.31-.06-2.32-1.85-4.32-6-3.81-3.63.47-7.09,3.75-9.66,7.71V20.15c2.23-2.67,6.31-3.91,9.72-4,6.08-.15,9.71,2.26,9.71,8.17V35.92c0,1.33.23,2.72,2.18,2.67a2.13,2.13,0,0,0,1.45-.57v.26a4.9,4.9,0,0,1-4.19,1.95,3.38,3.38,0,0,1-3.51-3.18c-2.24,2.26-4.64,3.59-9.89,3.49a8.28,8.28,0,0,1-4.69-1.33,4.55,4.55,0,0,1-1.73-3.45,6.77,6.77,0,0,1,2.68-5.39A28.43,28.43,0,0,1,212.7,26.77Zm-.89,13.05c3,.11,7.14-2.15,7.14-4.52V24.82c-5.13,1.7-11.78,4.42-11.78,10A4.59,4.59,0,0,0,211.81,39.82Z"/><path id="e" class="cls-1" d="M199.41,32.68a10.37,10.37,0,0,1-2.65,4.45,8.14,8.14,0,0,1-5.61,2.16,8.83,8.83,0,0,1-2.56-.38,9.87,9.87,0,0,1-5.26-4.24,13.94,13.94,0,0,1-1.58-3.33,16.81,16.81,0,0,0,6.58-1.63,23.45,23.45,0,0,0,4.39-2.94,18.8,18.8,0,0,1,3.75-2.52,6.32,6.32,0,0,1,1.38-.42l2.8-.53-.06-.15a10.41,10.41,0,0,0-6.09-6,14.31,14.31,0,0,0-5.09-1,12.84,12.84,0,0,0-6.13,1.49,10.21,10.21,0,0,0-3.18,2.7,12.35,12.35,0,0,0-2.43,6.18,19.12,19.12,0,0,0-.08,2.23,12.09,12.09,0,0,0,1,4.48,11.52,11.52,0,0,0,5.95,6h0a14,14,0,0,0,5.74,1.31,10.43,10.43,0,0,0,5.5-1.58,11.8,11.8,0,0,0,4.52-6l.08-.29-.91-.14ZM197.07,23a16.91,16.91,0,0,0-4.91,3,23.72,23.72,0,0,1-4.31,2.86h0a15.79,15.79,0,0,1-6.37,1.5,14.94,14.94,0,0,1-.44-3.48,13.49,13.49,0,0,1,1-5.11,8,8,0,0,1,7.5-4.61,8.78,8.78,0,0,1,4.43,1.2,6.46,6.46,0,0,1,2.43,2.38A4.73,4.73,0,0,1,197.07,23Z"/><path id="v" class="cls-1" d="M151.27,16.65h10.28v.16c-2,.36-2.07,1.9-1.62,2.77l6.64,12.9c1.23,2.41,1.51,2.36,2.68,0l6-12.33c.51-1.49-1.45-3.29-2.79-3.34v-.16h7.82v.16c-1.68.25-3.41,1.8-4.52,3.65L166,40.23l-10.94-20.9a5.3,5.3,0,0,0-3.8-2.52Z"/><path id="f" class="cls-1" d="M151.58,4.12c-5.47,0-9.55,3.28-9.55,8.36v4.25h-3.46v.2c3.69,0,3.46,1.39,3.46,3.13V36.72c0,2.56-1.39,3.13-2.51,3.13V40h9.33v-.15c-.9,0-2.63-.57-2.63-3.13V16.93h4.15v-.26a9,9,0,0,1-3.14-.76c-4.41-2.05-4.14-8.86.39-10.66a7.53,7.53,0,0,1,3.07-.46c3.35.1,5.3,2.72,6.92,5.13V5.56A12.26,12.26,0,0,0,151.58,4.12Z"/><path id="k" class="cls-1" d="M132.32,35.63l-7.55-10.07,10-8.91H133L119.78,28.07V8a15,15,0,0,1,.33-3,8.89,8.89,0,0,1,.63-1.93A4,4,0,0,1,124.61.77V0a12.37,12.37,0,0,0-3.26.43,9.38,9.38,0,0,0-2.47,1.07,6.61,6.61,0,0,0-2.16,2.21A8.24,8.24,0,0,0,115.59,8V36.69c0,2.57-1.73,3.13-2.62,3.13V40h9.32v-.16c-1.11,0-2.51-.56-2.51-3.13V30l2.3-2,6.29,8.35a4.85,4.85,0,0,1,1.15,2.42,1.1,1.1,0,0,1,0,.27,1,1,0,0,1-1,.82V40h9.73v-.17Q135.57,39.81,132.32,35.63Z"/><path id="i" class="cls-1" d="M103.43,36.72v-12a8.08,8.08,0,0,1,1.13-4.26,6.67,6.67,0,0,1,2.15-2.21,9.38,9.38,0,0,1,2.47-1.07,12.81,12.81,0,0,1,3.27-.43v.67c-1.48-.38-3.72.21-4.4,1.63-.59,1.23-.43,4.67-.44,5.67v12c0,2.57,1.4,3.14,2.51,3.14V40h-9.32v-.15C101.7,39.86,103.43,39.29,103.43,36.72Z"/><path id="a-2" data-name="a" class="cls-1" d="M105,7.69a4.58,4.58,0,0,0-3.88-1c-1.46.33-2.63,2.12-1.56,3.39.52.62,1.39.81,2.09,1.25,2.41,1.51,1.64,4.64-.41,6.41a31.47,31.47,0,0,1-5.83,3.9,1.18,1.18,0,0,1-1.69-.64c-1.16-3.55-4.43-5-9.25-4.91-3.4.1-7.48,1.34-9.71,4v4.21c2.57-4,6-7.24,9.66-7.71,4.13-.51,5.92,1.49,6,3.81.06,3.28-1.84,4.52-6.64,6.31a28.43,28.43,0,0,0-7.26,3.6,6.71,6.71,0,0,0-2.68,5.39,4.49,4.49,0,0,0,1.73,3.45,8.28,8.28,0,0,0,4.69,1.33c5.25.1,7.65-1.23,9.88-3.49a3.39,3.39,0,0,0,3.52,3.18,5.11,5.11,0,0,0,4-1.7.85.85,0,0,0,.17-.51,2.15,2.15,0,0,1-1.45.57c-2,0-2.18-1.34-2.18-2.67,0,0,0-7.85,0-11.29a2.46,2.46,0,0,1,1.38-2.23c3-1.49,6.68-3.27,9.16-5.74S108,10.36,105,7.69ZM90,35.3c0,2.37-4.13,4.63-7.15,4.52a4.59,4.59,0,0,1-4.63-5c0-5.6,6.64-8.32,11.78-10Z"/><path id="l" class="cls-1" d="M62.91,36.69V8a8.06,8.06,0,0,1,1.13-4.26A6.67,6.67,0,0,1,66.2,1.5,9.38,9.38,0,0,1,68.67.43,12.39,12.39,0,0,1,71.94,0V.67c-1.48-.38-3.72.2-4.4,1.63C67,3.53,67.11,7,67.1,8V36.69c0,2.57,1.4,3.13,2.52,3.13V40H60.29v-.16C61.18,39.82,62.91,39.26,62.91,36.69Z"/></g><path id="sign" class="cls-1" d="M25.75,5.3a17.8,17.8,0,0,0-4.59.61,12.09,12.09,0,0,0-4.5-3A12.25,12.25,0,0,0,7.85,25.76l.54.19A17.62,17.62,0,1,0,25.75,5.3ZM8.19,24.44a9.76,9.76,0,0,1-6.34-5.35c-2.31-5.2.54-11.72,6.21-14.23a12.06,12.06,0,0,1,8.66-.63,10.15,10.15,0,0,1,3.46,2,17.55,17.55,0,0,0-12,16.72C8.13,23.42,8.15,23.93,8.19,24.44ZM22.08,7a15.94,15.94,0,0,1,2.68-.13,18.2,18.2,0,0,1,11.79,5.23c6.57,6.58,7.14,16.71,1.26,22.59s-16.4,5.48-22.87-1a19.11,19.11,0,0,1-4.63-7.31A12.25,12.25,0,0,0,22.08,7Z"/></g></g></g></svg>