<svg xmlns="http://www.w3.org/2000/svg" viewBox="0 0 64.34 55.97"><defs><style>.cls-1{fill:#fff;}</style></defs><title>mini logo white</title><g id="Слой_2" data-name="Слой 2"><g id="mini_logo" data-name="mini logo"><g id="mini_logo_white" data-name="mini logo white"><path id="a" class="cls-1" d="M61.66,10.61A6.35,6.35,0,0,0,56.3,9.3c-2,.46-3.62,2.93-2.15,4.69.72.85,1.92,1.11,2.89,1.72,3.33,2.09,2.26,6.41-.57,8.85a43.45,43.45,0,0,1-8,5.38,1.63,1.63,0,0,1-2.34-.88c-1.6-4.9-6.12-6.95-12.76-6.78-4.7.14-10.33,1.84-13.41,5.53v5.82c3.54-5.46,8.32-10,13.33-10.64,5.7-.71,8.17,2.06,8.25,5.25.08,4.54-2.55,6.24-9.17,8.72a39.09,39.09,0,0,0-10,5,9.29,9.29,0,0,0-3.7,7.45A6.16,6.16,0,0,0,21,54.12,11.36,11.36,0,0,0,27.47,56c7.25.14,10.56-1.71,13.64-4.83A4.68,4.68,0,0,0,46,55.54a7,7,0,0,0,5.54-2.35,1.12,1.12,0,0,0,.24-.7,3,3,0,0,1-2,.78c-2.7.07-3-1.84-3-3.69,0,0,0-10.83-.05-15.57a3.4,3.4,0,0,1,1.91-3.09c4.18-2.05,9.21-4.52,12.64-7.92S65.79,14.31,61.66,10.61ZM41,48.73c0,3.26-5.7,6.38-9.87,6.24-3.31-.07-6.39-2.27-6.39-6.88,0-7.73,9.17-11.48,16.26-13.82Z"/><path id="l" class="cls-1" d="M3.62,50.65V11A11.34,11.34,0,0,1,5.18,5.12a9.14,9.14,0,0,1,3-3.05A13,13,0,0,1,11.57.59,17.5,17.5,0,0,1,16.08,0V.93C14,.4,11,1.21,10,3.17,9.19,4.88,9.41,9.61,9.4,11V50.65c0,3.54,1.93,4.32,3.47,4.32v.22H0V55C1.23,55,3.62,54.19,3.62,50.65Z"/></g></g></g></svg>