<svg xmlns="http://www.w3.org/2000/svg" viewBox="0 0 62.69 55.61"><title>sign black</title><g id="Слой_2" data-name="Слой 2"><g id="sign"><path id="sign_black" data-name="sign black" d="M37.22,4.67a25.4,25.4,0,0,0-6.64.88,17.39,17.39,0,0,0-6.49-4.36,17.71,17.71,0,0,0-12.75,33c.26.1.53.2.79.28A25.47,25.47,0,1,0,37.22,4.67ZM11.84,32.32a14.11,14.11,0,0,1-9.17-7.73c-3.33-7.52.78-16.94,9-20.57a17.5,17.5,0,0,1,12.52-.91,15,15,0,0,1,5,2.86A25.38,25.38,0,0,0,11.75,30.14C11.75,30.86,11.78,31.59,11.84,32.32ZM31.92,7.14A23.84,23.84,0,0,1,35.79,7a26.28,26.28,0,0,1,17.05,7.56c9.5,9.5,10.31,24.15,1.81,32.65s-23.71,7.93-33-1.41a27.8,27.8,0,0,1-6.7-10.57,17.7,17.7,0,0,0,17-28Z"/></g></g></svg>